<svg width="80" height="91" viewBox="0 0 80 91" fill="none" xmlns="http://www.w3.org/2000/svg">
<circle cx="40" cy="40" r="40" fill="#7294EB"/>
<g clip-path="url(#clip0_47_4)">
<path d="M30.057 33.138C29.7376 33.6576 30.0444 34.3644 30.6789 34.5639C32.4776 35.1293 35.8521 35.94 37.5499 34.7261C37.5331 35.1709 37.5709 35.5783 37.6508 35.9525C37.7811 36.547 38.3316 37.1539 39.1721 37.7942C39.6428 38.1559 40.2101 38.5259 40.8404 38.9083C41.4624 39.3116 42.0381 39.6567 42.5719 39.9269C43.5132 40.405 44.3033 40.6419 44.9042 40.5047C45.2824 40.4216 45.6649 40.2802 46.0683 40.0765C45.6859 42.1136 47.8627 44.7909 49.1445 46.1587C49.5984 46.6409 50.3758 46.616 50.7162 46.1088C51.8803 44.3835 53.1578 41.8351 54.3555 38.9042C55.3767 36.4139 56.3391 33.6493 57.1333 30.8764C57.5662 29.3631 57.9444 27.8499 58.2554 26.3782C59.5287 20.3335 59.6044 15.0121 57.1628 13.4781C54.7169 11.944 49.8799 14.2763 44.8916 17.9887C43.6771 18.8909 42.4542 19.8762 41.2523 20.9072C39.0586 22.7946 36.9364 24.8358 35.0915 26.8064C32.9272 29.1303 31.1412 31.3628 30.057 33.138ZM50.3674 19.9177C51.1322 19.9468 51.8971 20.1713 52.5863 20.6037C53.2755 21.036 53.8092 21.6264 54.158 22.2999C54.8598 23.6427 54.8514 25.3098 53.9815 26.6858L53.9605 26.7149C52.6367 28.777 49.8715 29.3881 47.7871 28.0785C45.7027 26.769 45.0849 24.0335 46.4087 21.9714L46.4297 21.9423C47.3164 20.5829 48.8377 19.8637 50.3674 19.9177Z" fill="white"/>
<path d="M60.6046 30.1157C60.3482 29.6043 59.5918 29.6833 59.4405 30.2362C59.3354 30.6312 59.222 31.0303 59.1085 31.4294C58.911 32.1236 58.7009 32.8221 58.4781 33.5163C58.4403 33.6411 58.4403 33.7783 58.4823 33.8988C60.3608 39.2867 59.8355 45.4354 56.5198 50.6112V50.6154C53.8975 54.702 48.4217 55.9118 44.2907 53.3176C40.4959 50.9355 39.1553 46.1712 40.9918 42.2467C41.1683 41.8684 41.0338 41.4194 40.6682 41.2032C40.4917 41.0993 40.311 40.987 40.1219 40.8706C39.9958 40.7916 39.8697 40.7085 39.7394 40.6254C39.6092 40.5464 39.4789 40.4674 39.3528 40.3884C39.1637 40.2678 38.983 40.1514 38.8149 40.0392C38.4661 39.8064 37.9954 39.877 37.7223 40.1972C34.9108 43.5105 29.9855 44.3378 26.1907 41.9557C22.0597 39.3615 20.8368 33.9487 23.4591 29.8579V29.8538C26.7791 24.6821 32.1792 21.5973 37.903 20.982C38.0332 20.9696 38.1593 20.9114 38.256 20.8241C38.8023 20.3294 39.3528 19.8429 39.8991 19.369C40.2185 19.0946 40.5379 18.8244 40.8531 18.5625C41.2943 18.1966 41.0464 17.4816 40.4707 17.4733C32.6835 17.3195 24.9972 21.0901 20.5342 28.0911C13.9238 38.4511 16.8487 52.2534 27.1153 59.1005C37.903 66.2968 52.4897 63.2287 59.4153 52.4363C63.8867 45.4645 64.0506 37.0085 60.6046 30.1157Z" fill="white"/>
</g>
<path d="M40 91L29.6077 78.25L50.3923 78.25L40 91Z" fill="#7294EB"/>
<defs>
<clipPath id="clip0_47_4">
<rect width="46" height="50" fill="white" transform="translate(17 13)"/>
</clipPath>
</defs>
</svg>
