<svg width="199" height="67" viewBox="0 0 199 67" fill="none" xmlns="http://www.w3.org/2000/svg">
<path d="M58.3733 12.06C47.3827 12.06 38.4734 21.0588 38.4734 32.16C38.4734 43.2612 47.3827 52.26 58.3733 52.26C69.3642 52.26 78.2734 43.2612 78.2734 32.16C78.2734 21.0588 69.3642 12.06 58.3733 12.06ZM68.7035 39.2678C68.7035 39.6127 68.4282 39.8908 68.0866 39.8908H65.4875C65.1462 39.8908 64.8708 39.6127 64.8708 39.2678V31.1811C64.8708 31.1144 64.7937 31.081 64.7387 31.1255L59.2323 36.6873C58.7588 37.1655 57.9768 37.1655 57.5033 36.6873L51.997 31.1255C51.9529 31.081 51.8648 31.1144 51.8648 31.1811V39.2678C51.8648 39.6127 51.5895 39.8908 51.2481 39.8908H48.6491C48.3077 39.8908 48.0324 39.6127 48.0324 39.2678V25.0522C48.0324 24.7073 48.3077 24.4292 48.6491 24.4292H50.4332C50.7526 24.4292 51.0719 24.5627 51.3032 24.7963L58.1531 31.715C58.2742 31.8374 58.4614 31.8374 58.5825 31.715L65.4324 24.7963C65.6638 24.5627 65.9721 24.4292 66.3025 24.4292H68.0866C68.4282 24.4292 68.7035 24.7073 68.7035 25.0522V39.2678Z" fill="#ECEFF9"/>
<path d="M124.593 27.5995V25.4304C124.593 25.0855 124.317 24.8075 123.976 24.8075H112.192C111.851 24.8075 111.575 25.0855 111.575 25.4304V39.6572C111.575 40.0021 111.851 40.2801 112.192 40.2801H123.976C124.317 40.2801 124.593 40.0021 124.593 39.6572V37.4993C124.593 37.1545 124.317 36.8764 123.976 36.8764H115.551C115.463 36.8764 115.397 36.8097 115.397 36.7206V34.2513C115.397 34.1623 115.463 34.0955 115.551 34.0955H123.976C124.317 34.0955 124.593 33.8175 124.593 33.4726V31.615C124.593 31.2702 124.317 30.9921 123.976 30.9921H115.551C115.463 30.9921 115.397 30.9253 115.397 30.8364V28.367C115.397 28.278 115.463 28.2112 115.551 28.2112H123.976C124.329 28.2224 124.593 27.9443 124.593 27.5995Z" fill="#ECEFF9"/>
<path d="M157.355 40.2801H160.031C160.372 40.2801 160.592 39.9242 160.45 39.6128L153.676 25.5082C153.467 25.0855 153.049 24.8075 152.575 24.8075H151.044C150.571 24.8075 150.153 25.0744 149.943 25.5082L143.171 39.6128C143.027 39.9242 143.247 40.2801 143.589 40.2801H146.265C146.617 40.2801 146.937 40.0799 147.091 39.7573L148.39 37.0544C148.445 36.9431 148.545 36.8764 148.666 36.8764H154.965C155.086 36.8764 155.185 36.9431 155.241 37.0544L156.54 39.7573C156.683 40.0799 157.002 40.2801 157.355 40.2801ZM149.899 33.8731L151.661 30.2023C151.716 30.0911 151.881 30.0911 151.936 30.2023L153.698 33.8731C153.743 33.9732 153.676 34.0955 153.556 34.0955H150.031C149.933 34.0955 149.855 33.9732 149.899 33.8731Z" fill="#ECEFF9"/>
<path d="M105.243 25.1746L98.3935 32.0933C98.2721 32.2157 98.0851 32.2157 97.9637 32.0933L91.1028 25.1746C90.8713 24.941 90.5629 24.8075 90.2325 24.8075H88.4488C88.1072 24.8075 87.8319 25.0855 87.8319 25.4304V39.6572C87.8319 40.0021 88.1072 40.2801 88.4488 40.2801H91.0477C91.3894 40.2801 91.6646 40.0021 91.6646 39.6572V31.5705C91.6646 31.5038 91.7416 31.4704 91.7966 31.5149L97.303 37.0766C97.7766 37.5549 98.5587 37.5549 99.0316 37.0766L104.538 31.5149C104.582 31.4704 104.671 31.5038 104.671 31.5705V39.6572C104.671 40.0021 104.946 40.2801 105.287 40.2801H107.886C108.227 40.2801 108.503 40.0021 108.503 39.6572V25.4304C108.503 25.0855 108.227 24.8075 107.886 24.8075H106.102C105.783 24.8186 105.475 24.941 105.243 25.1746Z" fill="#ECEFF9"/>
<path d="M141.662 31.159H135.616C135.275 31.159 135 31.437 135 31.7819V33.328C135 33.6729 135.275 33.9509 135.616 33.9509H139.085C139.195 33.9509 139.262 34.0622 139.228 34.1623C138.568 35.9309 136.85 37.1878 134.845 37.1211C132.511 37.0433 130.594 35.1411 130.484 32.783C130.363 30.169 132.434 28.0111 135 28.0111C136.046 28.0111 137.015 28.3781 137.786 28.9788C138.028 29.1679 138.381 29.1568 138.601 28.9343L140.231 27.2881C140.484 27.0322 140.461 26.6095 140.186 26.3759C138.766 25.1635 136.927 24.4404 134.923 24.4515C130.506 24.4849 126.916 28.1779 126.96 32.6495C127.004 37.0989 130.583 40.6917 135 40.6917C139.437 40.6917 143.039 37.0544 143.039 32.5717V32.5605C143.039 31.7708 142.422 31.159 141.662 31.159Z" fill="#ECEFF9"/>
</svg>
