<svg width="145" height="39" viewBox="0 0 145 39" fill="none" xmlns="http://www.w3.org/2000/svg">
<mask id="mask0_1_158" style="mask-type:luminance" maskUnits="userSpaceOnUse" x="0" y="0" width="145" height="39">
<path d="M144.902 0H0V39H144.902V0Z" fill="white"/>
</mask>
<g mask="url(#mask0_1_158)">
<path d="M45.1205 18.7492C45.1205 25.1257 49.2466 29.5718 54.964 29.5718C60.6815 29.5718 64.8075 25.1257 64.8075 18.7492C64.8075 12.3727 60.6815 7.92676 54.964 7.92676C49.2466 7.92676 45.1205 12.3727 45.1205 18.7492ZM61.0352 18.7492C61.0352 23.3122 58.5301 26.2665 54.964 26.2665C51.398 26.2665 48.8929 23.3122 48.8929 18.7492C48.8929 14.1863 51.398 11.232 54.964 11.232C58.5301 11.232 61.0352 14.1863 61.0352 18.7492Z" fill="#ECEFF9"/>
<path d="M75.4306 29.5718C79.763 29.5718 82.2386 25.9448 82.2386 21.5865C82.2386 17.2283 79.763 13.6013 75.4306 13.6013C73.4266 13.6013 71.953 14.391 70.9804 15.5318V13.8938H67.4438V34.515H70.9804V27.6413C71.953 28.782 73.4266 29.5718 75.4306 29.5718ZM70.892 21.1478C70.892 18.252 72.5424 16.6725 74.7233 16.6725C77.2873 16.6725 78.6725 18.6615 78.6725 21.5865C78.6725 24.5115 77.2873 26.5005 74.7233 26.5005C72.5424 26.5005 70.892 24.8918 70.892 22.0545V21.1478Z" fill="#ECEFF9"/>
<path d="M91.8102 29.5718C94.9047 29.5718 97.3508 27.963 98.4413 25.272L95.4057 24.1313C94.9341 25.7108 93.549 26.5883 91.8102 26.5883C89.5409 26.5883 87.9494 24.9795 87.6841 22.347H98.5297V21.177C98.5297 16.965 96.1425 13.6013 91.6628 13.6013C87.1831 13.6013 84.2949 17.082 84.2949 21.5865C84.2949 26.325 87.3894 29.5718 91.8102 29.5718ZM91.6333 16.5555C93.8732 16.5555 94.9341 18.018 94.9636 19.7145H87.861C88.3915 17.6378 89.8061 16.5555 91.6333 16.5555Z" fill="#ECEFF9"/>
<path d="M101.182 29.25H104.719V20.241C104.719 18.0473 106.34 16.8773 107.931 16.8773C109.877 16.8773 110.643 18.252 110.643 20.1533V29.25H114.179V19.1295C114.179 15.8243 112.234 13.6013 108.992 13.6013C106.988 13.6013 105.603 14.508 104.719 15.5318V13.8938H101.182V29.25Z" fill="#ECEFF9"/>
<path d="M124.538 8.24847L116.521 29.25H120.264L122.062 24.453H131.198L133.026 29.25H136.827L128.811 8.24847H124.538ZM126.601 12.402L129.961 21.177H123.3L126.601 12.402Z" fill="#ECEFF9"/>
<path d="M142.9 8.30945H139.127V29.3109H142.9V8.30945Z" fill="#ECEFF9"/>
<path d="M36.4778 15.962C37.3693 13.3063 37.0623 10.3972 35.6366 7.98159C33.4926 4.27659 29.1824 2.37047 24.9728 3.26747C23.1002 1.17365 20.4097 -0.0170647 17.589 -2.21432e-06C13.2861 -0.00975223 9.46836 2.73975 8.14458 6.80305C5.38042 7.36492 2.99444 9.08213 1.59822 11.516C-0.561796 15.2112 -0.0693772 19.8693 2.81638 23.038C1.92486 25.6937 2.23186 28.6028 3.65755 31.0184C5.80159 34.7234 10.1118 36.6295 14.3213 35.7325C16.1928 37.8263 18.8845 39.0172 21.7052 38.9988C26.0105 39.0098 29.8295 36.2578 31.1533 32.1908C33.9174 31.629 36.3034 29.9118 37.6996 27.4779C39.8573 23.7827 39.3637 19.1283 36.479 15.9595L36.4778 15.962ZM21.7077 36.4504C19.9848 36.4528 18.316 35.8544 16.9934 34.7588C17.0536 34.727 17.158 34.6698 17.2255 34.6283L25.0502 30.1433C25.4505 29.9179 25.6961 29.495 25.6937 29.0379V18.0899L29.0006 19.985C29.0362 20.0021 29.0596 20.0363 29.0645 20.0753V29.1415C29.0596 33.1732 25.7698 36.4418 21.7077 36.4504ZM5.88631 29.7436C5.02307 28.264 4.7124 26.5298 5.00833 24.8466C5.06606 24.8808 5.16795 24.9429 5.24041 24.9844L13.0651 29.4694C13.4618 29.6997 13.9529 29.6997 14.3508 29.4694L23.9033 23.9948V27.785C23.9057 27.824 23.8873 27.8618 23.8566 27.8862L15.9472 32.4188C12.4241 34.4321 7.9248 33.2353 5.88757 29.7436H5.88631ZM3.82701 12.792C4.68658 11.31 6.04353 10.1765 7.65955 9.58792C7.65955 9.65492 7.65586 9.77317 7.65586 9.85605V18.8273C7.65339 19.283 7.89898 19.706 8.2981 19.9314L17.8505 25.4048L14.5436 27.3C14.5104 27.3219 14.4687 27.3256 14.4318 27.3098L6.52121 22.7735C3.00549 20.7529 1.79961 16.2886 3.82578 12.7932L3.82701 12.792ZM30.9973 19.0673L21.4449 13.5927L24.7518 11.6988C24.785 11.6768 24.8267 11.6732 24.8636 11.689L32.7742 16.2215C36.2961 18.241 37.5032 22.7126 35.4684 26.208C34.6076 27.6875 33.2519 28.821 31.6371 29.4109V20.1715C31.6408 19.7157 31.3964 19.294 30.9985 19.0673H30.9973ZM34.2883 14.1509C34.2306 14.1155 34.1287 14.0546 34.0562 14.0132L26.2315 9.52817C25.8349 9.29784 25.3437 9.29784 24.9458 9.52817L15.3934 15.0028V11.2125C15.3909 11.1735 15.4093 11.1357 15.44 11.1113L23.3495 6.58247C26.8725 4.56542 31.3768 5.76592 33.4079 9.26371C34.2662 10.7408 34.5769 12.4703 34.2858 14.1509H34.2883ZM13.5956 20.9064L10.2874 19.0113C10.2518 18.9942 10.2285 18.9601 10.2236 18.9211V9.8548C10.226 5.8183 13.5256 2.54719 17.5927 2.54962C19.3131 2.54962 20.9782 3.14925 22.3007 4.24126C22.2406 4.27292 22.1374 4.33022 22.0687 4.37167L14.244 8.85667C13.8437 9.08213 13.5981 9.5038 13.6005 9.96084L13.5956 20.904V20.9064ZM15.3921 17.0625L19.6471 14.6238L23.902 17.0613V21.9375L19.6471 24.375L15.3921 21.9375V17.0625Z" fill="#ECEFF9"/>
</g>
</svg>
