<svg width="211" height="72" viewBox="0 0 211 72" fill="none" xmlns="http://www.w3.org/2000/svg">
<path d="M49.9916 30.5101C49.9916 25.7958 53.8727 20.16 61.5459 20.16C67.7449 20.16 71.8068 24.7185 71.7738 29.5909C71.7738 36.0881 68.2537 40.956 63.0484 40.956C61.3024 40.956 59.6782 40.0011 59.1063 38.8926C59.1063 38.8926 58.1736 42.7122 57.9626 43.4511C57.3337 45.8341 55.5588 48.1895 55.1302 48.7583C55.0876 48.8149 55.0583 48.8537 55.0447 48.8733C54.9251 49.0269 54.6838 48.9645 54.6534 48.7798C54.6505 48.7511 54.6432 48.6963 54.6328 48.6184C54.532 47.8623 54.1406 44.9259 54.7142 42.4963C55.0164 41.1407 56.7907 33.4705 56.7907 33.4705C56.7907 33.4705 56.2798 32.4243 56.2798 30.8529C56.2798 28.3867 57.6626 26.5704 59.4085 26.5704C60.8827 26.5704 61.6046 27.7101 61.6046 29.0655C61.6046 30.0301 61.2236 31.3091 60.8232 32.6533C60.5971 33.4125 60.3647 34.1925 60.1913 34.9484C59.7999 36.7047 61.0632 38.1514 62.7483 38.1514C65.788 38.1514 67.8644 34.116 67.8644 29.3416C67.8644 25.7068 65.4575 22.9957 61.1241 22.9957C56.221 22.9957 53.1509 26.7529 53.1509 30.9419C53.1509 32.3598 53.5422 33.3748 54.2032 34.1761C54.5055 34.5456 54.5642 34.6992 54.4446 35.0998C54.3554 35.407 54.175 36.1459 54.1141 36.4242C53.9924 36.8248 53.6619 36.9784 53.3009 36.8248C51.044 35.9011 49.9916 33.3436 49.9916 30.5101Z" fill="#ECEFF9"/>
<path fill-rule="evenodd" clip-rule="evenodd" d="M157.531 33.9889H160.238C160.599 33.9889 160.84 33.8353 160.899 33.497C161.019 32.9739 161.23 32.1103 161.291 31.8655C161.382 31.5582 161.199 31.3112 160.838 31.3112H158.16C158.191 31.1778 158.239 30.9907 158.298 30.7639C158.578 29.6817 159.093 27.6955 159.093 26.3209C159.093 23.0244 156.355 20.1909 152.443 20.1909C148.052 20.1909 145.192 23.2092 145.192 27.4605C145.192 28.6936 145.644 30.1404 146.216 31.033C146.096 31.033 145.975 31.0251 145.855 31.0174C145.735 31.0096 145.615 31.0018 145.494 31.0018C142.155 31.0018 140.048 32.8493 140.048 35.5604C140.048 38.0866 142.004 39.0727 143.839 39.7182C144.083 39.8061 144.325 39.887 144.558 39.9654C145.882 40.4094 146.969 40.7741 146.969 41.875C146.969 42.7676 146.155 43.2617 144.531 43.2617C142.605 43.2617 141.552 42.338 141.281 41.9997C141.461 41.8461 141.733 41.5078 141.733 40.9223C141.733 40.1211 141.161 39.4444 140.139 39.4444C139.267 39.4444 138.515 40.1834 138.334 41.1383C136.921 42.3091 135.386 43.0792 133.218 43.0792C131.081 43.0792 129.968 41.9396 129.968 39.5067C130.479 39.6603 131.772 39.8451 132.647 39.8451C136.286 39.8451 138.754 38.1512 138.754 34.7924C138.754 32.9761 137.189 31.0663 134.121 31.0663C130.059 31.0663 127.802 33.684 126.808 36.5797C126.537 36.5175 126.267 36.4573 125.967 36.395C126.178 35.7473 126.358 35.0083 126.358 34.1781C126.358 32.7602 125.487 31.0663 123.168 31.0663C121.544 31.0663 120.04 32.1437 118.985 33.7774C119.257 32.729 119.437 32.0213 119.437 31.9611C119.498 31.6829 119.407 31.3757 118.985 31.3757H116.608C116.278 31.3757 116.037 31.4982 115.948 31.8988C115.887 32.1771 115.076 35.4401 114.263 38.6142C113.752 40.6174 111.164 43.0814 107.914 43.0814C105.776 43.0814 104.663 41.8794 104.663 39.4466C105.235 39.6626 106.468 39.8784 107.342 39.8784C111.103 39.8784 113.449 38.1846 113.449 34.8258C113.449 33.0095 111.884 31.0997 108.816 31.0997C104.243 31.0997 101.445 34.7345 100.993 38.8323C100.782 40.5573 99.3993 42.8989 97.8639 42.8989C97.1114 42.8989 96.6901 42.407 96.6901 41.6057C96.6901 41.0093 97.0312 39.6908 97.4637 38.0189L97.4644 38.0164C97.5446 37.7048 97.6283 37.3809 97.7141 37.0472C97.8942 36.3394 98.1663 35.2309 98.466 33.9978H100.934C101.295 33.9978 101.506 33.8442 101.595 33.5059C101.715 32.9828 101.926 32.1192 101.986 31.8743C102.078 31.5672 101.895 31.3201 101.534 31.3201H99.0969C99.0969 31.3201 100.21 26.7304 100.24 26.608C100.36 26.1451 99.969 25.869 99.5793 25.9603C99.5793 25.9603 97.6832 26.3298 97.3533 26.4233C96.9918 26.4856 96.7203 26.7015 96.6007 27.2246C96.5705 27.2869 95.6069 31.3512 95.6069 31.3512H93.6502C93.2894 31.3512 93.0784 31.5049 92.9891 31.8431C92.8695 32.3662 92.6585 33.2299 92.5981 33.4747C92.5066 33.7819 92.6888 34.0289 93.0503 34.0289H94.9767C94.9767 34.051 94.8895 34.3973 94.7538 34.9407C94.5055 35.9319 94.0933 37.5793 93.7438 39.1105C93.4716 40.2501 92.6304 42.9301 91.1865 42.9301C90.3453 42.9301 89.9824 42.4983 89.9824 41.5433C89.9824 40.8296 90.3115 39.5982 90.6526 38.3248C91.0177 36.9616 91.3954 35.5502 91.3954 34.6745C91.3954 32.4263 90.2215 31.1331 87.814 31.1331C86.2793 31.1331 84.7158 32.1504 84.0526 33.0118C84.0526 33.0118 84.2636 32.3039 84.3247 32.0257C84.3852 31.7185 84.2333 31.4403 83.8725 31.4403H81.5262C81.0156 31.4403 80.8932 31.7185 80.8046 32.0257L80.737 32.299C80.5183 33.1863 79.8086 36.0644 79.1194 38.8323C78.5476 41.0804 77.1929 42.959 75.749 42.959C74.9964 42.959 74.6666 42.4671 74.6666 41.6658C74.6666 41.0846 74.9711 39.8177 75.3629 38.1891C75.4487 37.8342 75.538 37.462 75.6294 37.0761C76.1007 35.1275 76.5374 33.4342 76.7548 32.594C76.8293 32.3057 76.8779 32.1178 76.8926 32.0546C76.9841 31.7475 76.8321 31.4381 76.4122 31.4381H74.0357C73.6137 31.4381 73.4639 31.654 73.3745 31.9923C73.3745 31.9923 72.7134 34.5787 71.9897 37.4745C71.9102 37.7996 71.8293 38.1254 71.7499 38.4476C71.3152 40.2013 70.9066 41.8478 70.9066 42.6808C70.9066 44.4681 71.6894 45.8237 73.8549 45.8237C75.5099 45.8237 76.8342 44.9623 77.8274 43.8516C77.6775 44.4369 77.5861 44.8376 77.5861 44.8687C77.4947 45.2071 77.6171 45.5165 78.0081 45.5165H80.4459C80.8672 45.5165 81.0177 45.3318 81.1063 44.9623L83.0025 37.292C83.4829 35.3199 84.6574 34.0267 86.3426 34.0267C87.1247 34.0267 87.8168 34.5498 87.7275 35.5982C87.6909 36.0492 87.4574 36.9683 87.188 38.0271C86.7773 39.643 86.2835 41.5843 86.2835 42.683C86.2835 44.0385 86.7639 45.8259 89.2931 45.8259C91.0085 45.8259 92.2717 44.9934 93.1741 43.8849C93.5047 45.0245 94.407 45.8259 96.0331 45.8259C98.7403 45.8259 100.397 44.1943 101.33 42.5294C102.113 44.4392 104.008 45.8259 106.746 45.8259C109.544 45.8259 111.71 44.6239 113.215 42.9924L113.174 43.1582C112.925 44.1737 112.761 44.843 112.734 44.9021C112.643 45.2405 112.795 45.5187 113.186 45.5187H115.594C115.924 45.5187 116.165 45.334 116.254 44.9957C116.269 44.9067 116.36 44.5463 116.504 43.9763C116.66 43.3626 116.877 42.5058 117.126 41.4833C118.059 37.7572 119.564 33.8753 121.851 33.8753C122.664 33.8753 122.964 34.3384 122.964 35.0461C122.964 35.3845 122.873 35.6938 122.784 35.8474C121.701 35.6316 120.799 36.1857 120.799 37.3877C120.799 38.1579 121.612 38.8657 122.694 38.8657C123.536 38.8657 124.2 38.6498 124.74 38.2803C125.252 38.3738 125.793 38.4962 126.365 38.6498C126.274 39.204 126.246 39.7582 126.246 40.2813C126.246 43.2684 128.322 45.8259 132.083 45.8259C135.032 45.8259 137.047 44.7174 138.763 43.3307C139.604 44.7174 141.711 45.857 144.479 45.857C148.271 45.857 150.437 43.8249 150.437 41.1761C150.437 38.7744 148.51 37.8796 146.494 37.1407C146.275 37.0572 146.06 36.9795 145.853 36.9045C144.529 36.4252 143.516 36.0586 143.516 35.0461C143.516 34.0913 144.268 33.6283 145.532 33.6283C146.324 33.6283 146.943 33.8036 147.279 33.8991L147.305 33.9065C147.636 34.739 148.299 35.6627 149.471 35.6627C150.465 35.6627 150.885 34.8614 150.885 34.1536C150.885 33.3006 150.326 32.7591 149.663 32.1172C148.698 31.1832 147.514 30.0364 147.514 27.4071C147.514 24.6359 149.05 22.3544 152.208 22.3544C154.405 22.3544 155.848 23.7723 155.848 26.1117C155.848 28.0214 154.705 31.4091 154.705 31.4091H152.778C152.417 31.4091 152.206 31.5627 152.118 31.901C151.998 32.4241 151.787 33.2878 151.726 33.5325C151.634 33.8398 151.817 34.0868 152.178 34.0868H154.044C154.044 34.0868 152.118 41.3875 152.118 42.7431C152.118 44.5304 153.111 45.8859 155.246 45.8859C158.286 45.8859 160.21 43.8537 161.023 40.9268C161.084 40.7109 160.963 40.5262 160.723 40.5262H159.549C159.308 40.5262 159.188 40.6486 159.127 40.8956C158.856 41.944 158.225 43.0525 156.931 43.0525C156.179 43.0525 155.757 42.5606 155.757 41.7593C155.757 41.1442 156.099 39.8301 156.563 38.0417C156.633 37.7719 156.706 37.4913 156.781 37.2007C157.051 35.961 157.531 33.9889 157.531 33.9889ZM133.521 33.8665C134.603 33.8665 135.115 34.6054 135.115 35.4691C135.115 36.947 134.001 37.8418 132.255 37.8418C131.623 37.8418 130.75 37.6882 130.24 37.5035C130.422 36.1769 131.385 33.8665 133.521 33.8665ZM108.185 33.8665C109.359 33.8665 109.779 34.6054 109.779 35.4691C109.779 36.947 108.666 37.8418 106.92 37.8418C106.287 37.8418 105.416 37.6882 104.904 37.5035C105.087 36.1769 105.928 33.8665 108.185 33.8665Z" fill="#ECEFF9"/>
<path d="M75.5682 30.3234C76.773 30.3234 77.9448 29.3062 78.1248 28.0129C78.3668 26.7798 77.553 25.7337 76.351 25.7337C75.1462 25.7337 73.9745 26.7509 73.7937 28.0129C73.5222 29.2772 74.305 30.3234 75.5682 30.3234Z" fill="#ECEFF9"/>
</svg>
