<svg width="92" height="30" viewBox="0 0 92 30" fill="none" xmlns="http://www.w3.org/2000/svg">
<g clip-path="url(#clip0_1_112)">
<path fill-rule="evenodd" clip-rule="evenodd" d="M13.4974 21.7744C12.0634 23.2953 10.2922 24.0742 8.18385 24.0742C6.59627 24.0742 5.31418 23.621 4.33757 22.7145V30H0.000610352V7.84793H4.27425C4.27425 7.84793 6.5662 7.45847 8.18385 7.45847C10.2922 7.45847 12.0618 8.23571 13.4974 9.75829C14.933 11.2809 15.6659 13.2886 15.6659 15.7814C15.6659 18.2441 14.933 20.2518 13.4974 21.7744ZM4.27584 15.7814C4.27584 16.98 4.6114 17.9839 5.25244 18.7611C5.56459 19.1372 5.95039 19.4364 6.3829 19.638C6.81541 19.8395 7.28419 19.9384 7.75649 19.9278C8.76475 19.9278 9.58941 19.5384 10.2305 18.7611C10.9016 17.9839 11.2387 16.9817 11.2387 15.7814C11.2387 14.5845 10.9016 13.5807 10.2305 12.8034C9.58941 12.0262 8.76475 11.6367 7.75649 11.6367C7.28419 11.6262 6.81541 11.7251 6.3829 11.9266C5.95039 12.1281 5.56459 12.4274 5.25244 12.8034C4.6114 13.5807 4.27584 14.5829 4.27584 15.7814Z" fill="#ECEFF9"/>
<path fill-rule="evenodd" clip-rule="evenodd" d="M36.4294 7.84793H40.798V23.7167H36.4294V22.5516C35.2707 23.5555 33.8968 24.0725 32.2776 24.0725C30.1091 24.0725 28.2461 23.2953 26.7203 21.7089C25.1929 20.1226 24.4299 18.1467 24.4299 15.7831C24.4299 13.4178 25.1929 11.442 26.7203 9.85565C28.2461 8.26928 30.1091 7.45847 32.276 7.45847C34.0805 7.45847 36.4294 7.84793 36.4294 7.84793ZM35.361 18.5681C36.0553 17.79 36.4388 16.7571 36.431 15.6858C36.431 13.4833 34.9336 11.7341 32.6132 11.7341C31.5448 11.7341 30.6584 12.1219 29.9572 12.8991C29.6189 13.2677 29.353 13.7038 29.1747 14.1821C28.9965 14.6604 28.9095 15.1715 28.9188 15.6858C28.9188 16.7534 29.2845 17.7254 29.9873 18.5345C30.3162 18.9277 30.7211 19.2411 31.1745 19.4535C31.628 19.6658 32.1192 19.7721 32.6148 19.765C33.7433 19.765 34.6598 19.3772 35.361 18.5681Z" fill="#ECEFF9"/>
<path fill-rule="evenodd" clip-rule="evenodd" d="M64.0135 12.09V23.7166H59.6765V7.8479H68.8522V12.09H64.0135Z" fill="#ECEFF9"/>
<path fill-rule="evenodd" clip-rule="evenodd" d="M13.6793 1.04584V5.29126H17.8643V23.7183H22.2013V1.04584H13.6793Z" fill="#ECEFF9"/>
<path fill-rule="evenodd" clip-rule="evenodd" d="M73.2857 0C74.9033 0 76.1411 1.31441 76.1411 3.03004C76.1411 4.67181 74.8337 6.02148 73.2857 6.02148C72.5384 6.01839 71.8225 5.70228 71.2939 5.142C70.7653 4.58171 70.4668 3.82262 70.4635 3.03004C70.4635 1.31441 71.7377 0 73.2857 0Z" fill="#ECEFF9"/>
<path fill-rule="evenodd" clip-rule="evenodd" d="M71.1188 23.7166V7.8479H75.4874V23.7166H71.1188Z" fill="#ECEFF9"/>
<path fill-rule="evenodd" clip-rule="evenodd" d="M82.2587 7.8479L84.5174 11.8952L86.7777 7.8479H91.6639L86.9613 15.5548L91.9995 23.7166H87.1434L84.5174 19.216L81.9216 23.7166H77.0354L82.0751 15.5548L77.3725 7.8479H82.2587Z" fill="#ECEFF9"/>
<path fill-rule="evenodd" clip-rule="evenodd" d="M50.1953 30.0017H45.6146L48.0569 23.7166L42.2241 7.8479H47.0502L50.4089 17.6599L53.8912 7.8479H58.532L50.1953 30.0017Z" fill="#ECEFF9"/>
</g>
<defs>
<clipPath id="clip0_1_112">
<rect width="92" height="30" fill="white"/>
</clipPath>
</defs>
</svg>
