<svg width="69" height="69" viewBox="0 0 69 69" fill="none" xmlns="http://www.w3.org/2000/svg">
<circle cx="34.5" cy="34.5" r="34.5" fill="#162747"/>
<g clip-path="url(#clip0_32_50)">
<path d="M45.064 36.1994C44.5951 35.6277 44.7293 35.3734 45.064 34.8624C45.07 34.8565 48.9403 29.6929 49.339 27.9417L49.3415 27.9405C49.5396 27.3024 49.3415 26.8334 48.3833 26.8334H45.2126C44.4054 26.8334 44.0332 27.2359 43.8339 27.6862C43.8339 27.6862 42.2195 31.4172 39.9358 33.8357C39.1987 34.5345 38.858 34.7585 38.4556 34.7585C38.2574 34.7585 37.9493 34.5345 37.9493 33.8964V27.9405C37.9493 27.1752 37.7233 26.8334 37.0551 26.8334H32.0695C31.5633 26.8334 31.2624 27.1904 31.2624 27.5229C31.2624 28.2485 32.4043 28.4154 32.5227 30.457V34.8869C32.5227 35.8575 32.3402 36.036 31.9354 36.036C30.8576 36.036 28.2415 32.2899 26.6913 28.0024C26.3783 27.1705 26.0726 26.8345 25.2594 26.8345H22.0875C21.1825 26.8345 21 27.237 21 27.6874C21 28.483 22.0778 32.4392 26.0122 37.6659C28.6343 41.2335 32.3269 43.1667 35.6861 43.1667C37.7052 43.1667 37.9517 42.7374 37.9517 41.9989C37.9517 38.5899 37.7693 38.2679 38.7806 38.2679C39.2495 38.2679 40.0566 38.4919 41.9416 40.2127C44.0961 42.2532 44.4501 43.1667 45.656 43.1667H48.8267C49.7305 43.1667 50.1885 42.7374 49.9251 41.8904C49.3221 40.1089 45.2476 36.4444 45.064 36.1994Z" fill="#7294EB"/>
</g>
<defs>
<clipPath id="clip0_32_50">
<rect width="29" height="28" fill="white" transform="translate(21 21)"/>
</clipPath>
</defs>
</svg>
