<svg width="69" height="69" viewBox="0 0 69 69" fill="none" xmlns="http://www.w3.org/2000/svg">
<circle cx="34.5" cy="34.5" r="34.5" fill="#162747"/>
<path d="M35.0032 22H34.9968C27.8289 22 22 27.6062 22 34.5C22 37.2344 22.9165 39.7688 24.4749 41.8266L22.8548 46.4703L27.8516 44.9344C29.9073 46.2438 32.3594 47 35.0032 47C42.1711 47 48 41.3922 48 34.5C48 27.6078 42.1711 22 35.0032 22ZM42.5676 39.6516C42.254 40.5031 41.0092 41.2094 40.0164 41.4156C39.3371 41.5547 38.4499 41.6656 35.4631 40.475C31.6427 38.9531 29.1825 35.2203 28.9908 34.9781C28.8071 34.7359 27.447 33.0016 27.447 31.2078C27.447 29.4141 28.3944 28.5406 28.7763 28.1656C29.0899 27.8578 29.6082 27.7172 30.1055 27.7172C30.2664 27.7172 30.411 27.725 30.541 27.7312C30.9229 27.7469 31.1146 27.7688 31.3665 28.3484C31.6801 29.075 32.4439 30.8688 32.5349 31.0531C32.6275 31.2375 32.7201 31.4875 32.5901 31.7297C32.4683 31.9797 32.361 32.0906 32.1692 32.3031C31.9775 32.5156 31.7955 32.6781 31.6037 32.9063C31.4282 33.1047 31.23 33.3172 31.451 33.6844C31.672 34.0438 32.4357 35.2422 33.5602 36.2047C35.0114 37.4469 36.1879 37.8438 36.6087 38.0125C36.9224 38.1375 37.2961 38.1078 37.5252 37.8734C37.8161 37.5719 38.1752 37.0719 38.5409 36.5797C38.8009 36.2266 39.1291 36.1828 39.4736 36.3078C39.8246 36.425 41.682 37.3078 42.0639 37.4906C42.4458 37.675 42.6976 37.7625 42.7902 37.9172C42.8812 38.0719 42.8812 38.7984 42.5676 39.6516Z" fill="#7294EB"/>
</svg>
