<svg width="134" height="45" viewBox="0 0 134 45" fill="none" xmlns="http://www.w3.org/2000/svg">
<path d="M74.2945 33.7502C76.0682 33.7502 77.5235 32.9142 78.5445 31.359L78.7357 33.4285H82.2197V11.2502H78.4557V19.2599C77.5105 17.8198 76.1071 17.0613 74.4602 17.0613C70.8235 17.0613 68.2842 20.1604 68.2842 25.5217C68.2842 30.8054 70.7475 33.7502 74.295 33.7502H74.2945ZM97.4573 32.3484V29.2502C96.2835 30.047 94.3181 30.754 92.4801 30.754C89.7233 30.754 88.6772 29.4429 88.524 26.7683H97.6096V24.7502C97.6096 19.171 95.173 17.0613 91.4081 17.0613C86.8132 17.0613 84.6322 20.5972 84.6322 25.4572C84.6322 31.0364 87.3501 33.7502 92.1741 33.7502C94.5736 33.7502 96.3473 33.1068 97.4573 32.3484ZM56.875 21.9083C57.5767 21.047 58.675 20.3147 60.04 20.3147C61.3666 20.3147 61.9674 20.8927 61.9674 22.1018V33.4285H65.7315V21.7156C65.7315 18.5276 64.4678 17.1258 61.3925 17.1258C59.1463 17.1258 57.8192 17.9618 57.0532 18.7203H56.8629L56.7727 17.383H53.0962V33.4285H56.8611V21.9091L56.875 21.9083ZM50.0347 22.4871C50.0347 18.5912 48.0689 17.1258 44.0746 17.1258C41.599 17.1258 39.6079 18.1807 38.4727 19.0027V22.2945C39.672 21.3042 41.5099 20.1604 43.6411 20.1604C45.4407 20.1604 46.2697 20.8029 46.2697 22.5255V23.5411H45.6703C39.9022 23.5411 37.3365 25.4188 37.3365 28.7743C37.3365 31.8725 39.3016 33.6595 42.2116 33.6595C44.432 33.6595 45.3769 32.9273 46.1036 32.1558H46.2568C46.2827 32.5673 46.41 33.1068 46.5382 33.4285H50.2129C50.0861 32.1254 50.0222 30.8168 50.0217 29.5074V22.4871H50.0347ZM109.046 33.4285H113.295L108.1 25.1617L112.593 17.383H108.829L106.11 22.2299L103.072 17.383H98.8098L103.621 25.0719L98.6186 33.4285H102.447L105.65 28.0027L109.046 33.4285ZM75.4054 20.0576C77.4346 20.0576 78.4427 21.6903 78.4427 25.3805C78.4427 29.109 77.3694 30.7418 75.2392 30.7418C73.1841 30.7418 72.163 29.1465 72.163 25.5086C72.176 21.7165 73.248 20.0576 75.4054 20.0576ZM91.3442 20.0576C93.2082 20.0576 93.7817 21.6258 93.7817 23.6317V23.9534H88.524C88.6133 21.3948 89.5321 20.0567 91.3451 20.0567L91.3442 20.0576ZM46.2697 29.5963C45.7976 30.3033 44.9043 30.869 43.5771 30.869C41.9944 30.869 41.2036 29.9433 41.2036 28.5415C41.2036 26.6908 42.505 26.0482 45.7333 26.0482H46.2697V29.5963Z" fill="#ECEFF9"/>
<path d="M31.7588 29.6615V33.4283H27.9307V27.0767L20.7072 11.25H24.7014L30.3293 23.6315C31.4144 25.9975 31.7588 26.8195 31.7588 29.6615ZM38.9564 11.25L34.2604 21.9726H30.3683L35.0642 11.25H38.9564Z" fill="#ECEFF9"/>
</svg>
