<svg width="72" height="34" viewBox="0 0 72 34" fill="none" xmlns="http://www.w3.org/2000/svg">
<g clip-path="url(#clip0_1_185)">
<mask id="mask0_1_185" style="mask-type:luminance" maskUnits="userSpaceOnUse" x="-303" y="-79" width="683" height="661">
<path d="M-302.562 581.518H379.182V-78.5837H-302.562V581.518Z" fill="white"/>
</mask>
<g mask="url(#mask0_1_185)">
<path d="M37.3606 29.4768C35.9691 29.387 34.3646 29.1508 33.0991 28.7959C32.862 28.7294 31.8805 28.3801 31.6309 28.2692C27.225 26.2931 24.1558 21.9795 24.1558 16.975C24.1558 10.111 29.9233 4.51987 37.017 4.51987C44.0477 4.51987 49.7763 10.0156 49.8748 16.8021H54.5211C54.4226 7.53608 46.6108 0.0266037 37.017 0.0266037C27.3659 0.0266037 19.5106 7.62812 19.5106 16.975C19.5106 23.4189 23.2533 29.0233 28.7334 31.8864C29.7229 32.3932 31.143 32.9155 31.6251 33.0585C33.1873 33.5088 35.1044 33.8082 36.8108 33.9335C37.3904 33.9756 39.414 33.9978 40.0038 34H72V29.5189H40.0577C39.6328 29.5189 37.7763 29.5034 37.3606 29.4768ZM40.0577 22.4408C39.7198 22.4408 37.9527 22.4297 37.6263 22.4031C37.0731 22.3577 36.2714 22.2778 35.7561 22.1636C35.1743 22.0128 34.628 21.8132 34.3818 21.6823C32.6559 20.7786 31.4797 19.011 31.4797 16.975C31.4797 14.0132 33.9569 11.6113 37.017 11.6113C40.013 11.6113 42.4489 13.9189 42.5463 16.8021H47.0105C46.9166 11.5348 42.4822 7.28991 37.017 7.28991C31.4911 7.28991 27.012 11.6257 27.012 16.975C27.012 20.7475 29.2453 24.0055 32.4978 25.6012C32.9983 25.8851 33.9397 26.1822 34.2077 26.2499C35.1262 26.4839 36.3596 26.6436 37.3606 26.7145C37.7305 26.7445 39.5423 26.7578 39.9248 26.76V26.7666H71.9989V22.4408H40.0577ZM16.6475 33.9834H11.9702V4.52985H5.13533V-7.62939e-06H16.6475V33.9834ZM0 6.79312V11.1489H5.13533V33.9834H9.62932V6.79312H0Z" fill="#ECEFF9"/>
<path d="M63.7353 0.316326C62.0507 0.316326 60.6534 1.61707 60.6534 3.24937C60.6534 4.88167 62.0507 6.23453 63.7353 6.23453C65.4715 6.23453 66.8149 4.88167 66.8149 3.24937C66.8149 1.61707 65.4715 0.316326 63.7353 0.316326ZM63.7353 5.75326C62.3438 5.75326 61.1448 4.69426 61.1448 3.24937C61.1448 1.87766 62.3438 0.792044 63.7353 0.792044C65.1257 0.792044 66.319 1.87766 66.319 3.24937C66.319 4.69426 65.1257 5.75326 63.7353 5.75326Z" fill="#ECEFF9"/>
<path d="M64.9088 4.05314C64.9088 3.72379 64.8584 3.41774 64.4691 3.29687C64.9569 3.13275 65.005 2.82336 65.005 2.63596C65.005 1.87858 64.295 1.78211 64.0029 1.78211H62.6595V4.71515H63.2196V3.51199H63.6605C64.295 3.51199 64.3477 3.79476 64.3477 4.05314C64.3477 4.55325 64.3477 4.64751 64.4691 4.71515H65.0302C64.9088 4.5965 64.9569 4.50446 64.9088 4.05314ZM63.8804 3.08396H63.2196V2.16024H63.7853C64.177 2.16024 64.4427 2.28 64.4427 2.63596C64.4427 2.82336 64.3477 3.08396 63.8804 3.08396Z" fill="#ECEFF9"/>
</g>
</g>
<defs>
<clipPath id="clip0_1_185">
<rect width="72" height="34" fill="white"/>
</clipPath>
</defs>
</svg>
