<svg width="50" height="50" viewBox="0 0 50 50" fill="none" xmlns="http://www.w3.org/2000/svg">
<rect opacity="0.2" width="50" height="50" rx="25" fill="white"/>
<path fill-rule="evenodd" clip-rule="evenodd" d="M17.7548 16.3099C17.3534 15.8967 16.7025 15.8967 16.3011 16.3099C15.8996 16.7232 15.8996 17.3932 16.3011 17.8064L23.6289 25.3497L16.9804 32.1936C16.579 32.6068 16.579 33.2768 16.9804 33.6901C17.3818 34.1033 18.0327 34.1033 18.4342 33.6901L25.0826 26.8461L31.5654 33.5195C31.9668 33.9328 32.6177 33.9328 33.0191 33.5195C33.4206 33.1063 33.4206 32.4363 33.0191 32.023L26.5363 25.3497L33.6984 17.977C34.0999 17.5637 34.0999 16.8937 33.6984 16.4805C33.297 16.0672 32.6461 16.0672 32.2447 16.4805L25.0826 23.8532L17.7548 16.3099Z" fill="white"/>
</svg>
