<svg width="139" height="42" viewBox="0 0 139 42" fill="none" xmlns="http://www.w3.org/2000/svg">
<path d="M69.48 23.8601C69.28 25.3201 68.72 26.6101 67.8 27.7301C66.88 28.8501 65.68 29.7201 64.2 30.3401C62.72 30.9601 61.09 31.2701 59.31 31.2701C57.29 31.2701 55.5 30.9001 53.94 30.1601C52.38 29.4001 51.16 28.3401 50.28 26.9801C49.42 25.6201 48.99 24.0601 48.99 22.3001C48.99 20.5401 49.42 18.9801 50.28 17.6201C51.16 16.2601 52.38 15.2001 53.94 14.4401C55.5 13.6801 57.29 13.3001 59.31 13.3001C61.09 13.3001 62.72 13.6201 64.2 14.2601C65.68 14.8801 66.88 15.7501 67.8 16.8701C68.72 17.9901 69.28 19.2801 69.48 20.7401H64.47C64.21 19.6001 63.62 18.7101 62.7 18.0701C61.78 17.4301 60.65 17.1101 59.31 17.1101C58.25 17.1101 57.32 17.3201 56.52 17.7401C55.74 18.1401 55.14 18.7301 54.72 19.5101C54.3 20.2901 54.09 21.2201 54.09 22.3001C54.09 23.3801 54.3 24.3101 54.72 25.0901C55.14 25.8501 55.74 26.4401 56.52 26.8601C57.32 27.2601 58.25 27.4601 59.31 27.4601C60.63 27.4601 61.75 27.1401 62.67 26.5001C63.61 25.8401 64.21 24.9601 64.47 23.8601H69.48ZM76.5649 13.7501V30.8201H71.5849V13.7501H76.5649ZM90.8749 13.7501V30.8201H85.8949V13.7501H90.8749ZM87.8449 20.2301V24.0101H74.4349V20.2301H87.8449ZM103.822 31.2701C101.722 31.2701 99.8616 30.9001 98.2416 30.1601C96.6216 29.4001 95.3616 28.3501 94.4616 27.0101C93.5816 25.6501 93.1416 24.0801 93.1416 22.3001C93.1416 20.5201 93.5816 18.9501 94.4616 17.5901C95.3616 16.2301 96.6216 15.1801 98.2416 14.4401C99.8616 13.6801 101.722 13.3001 103.822 13.3001C105.922 13.3001 107.782 13.6801 109.402 14.4401C111.022 15.1801 112.272 16.2301 113.152 17.5901C114.032 18.9501 114.472 20.5201 114.472 22.3001C114.472 24.0801 114.032 25.6501 113.152 27.0101C112.272 28.3501 111.022 29.4001 109.402 30.1601C107.782 30.9001 105.922 31.2701 103.822 31.2701ZM103.822 27.4601C104.962 27.4601 105.952 27.2601 106.792 26.8601C107.632 26.4401 108.272 25.8401 108.712 25.0601C109.172 24.2801 109.402 23.3601 109.402 22.3001C109.402 21.2401 109.172 20.3201 108.712 19.5401C108.272 18.7601 107.632 18.1601 106.792 17.7401C105.952 17.3201 104.962 17.1101 103.822 17.1101C102.682 17.1101 101.692 17.3201 100.852 17.7401C100.012 18.1601 99.3616 18.7601 98.9016 19.5401C98.4616 20.3201 98.2416 21.2401 98.2416 22.3001C98.2416 23.3601 98.4616 24.2801 98.9016 25.0601C99.3616 25.8401 100.012 26.4401 100.852 26.8601C101.692 27.2601 102.682 27.4601 103.822 27.4601ZM127.261 31.2701C124.941 31.2701 122.941 30.8301 121.261 29.9501C119.601 29.0501 118.331 27.7601 117.451 26.0801C116.571 24.3801 116.131 22.3501 116.131 19.9901C116.131 16.4501 117.081 13.6601 118.981 11.6201C120.881 9.58007 123.601 8.41007 127.141 8.11007C130.001 7.89007 131.951 7.70007 132.991 7.54007C134.051 7.38007 134.991 7.16007 135.811 6.88007V11.0501C135.171 11.3101 134.261 11.5201 133.081 11.6801C131.921 11.8201 130.261 11.9401 128.101 12.0401C125.501 12.1601 123.551 12.8801 122.251 14.2001C120.971 15.5201 120.331 17.4201 120.331 19.9001V20.7101L120.151 20.3501C120.731 18.7301 121.781 17.4601 123.301 16.5401C124.841 15.6201 126.631 15.1601 128.671 15.1601C130.391 15.1601 131.901 15.4901 133.201 16.1501C134.521 16.7901 135.541 17.7101 136.261 18.9101C137.001 20.0901 137.371 21.4601 137.371 23.0201C137.371 24.6601 136.951 26.1101 136.111 27.3701C135.271 28.6101 134.091 29.5701 132.571 30.2501C131.051 30.9301 129.281 31.2701 127.261 31.2701ZM127.381 27.4601C128.361 27.4601 129.221 27.2801 129.961 26.9201C130.721 26.5601 131.301 26.0501 131.701 25.3901C132.101 24.7301 132.301 23.9601 132.301 23.0801C132.301 22.2001 132.101 21.4401 131.701 20.8001C131.301 20.1401 130.721 19.6301 129.961 19.2701C129.221 18.9101 128.361 18.7301 127.381 18.7301C126.001 18.7301 124.781 19.1001 123.721 19.8401C122.661 20.5601 121.861 21.5701 121.321 22.8701C121.621 24.2701 122.321 25.3901 123.421 26.2301C124.521 27.0501 125.841 27.4601 127.381 27.4601Z" fill="white"/>
<path d="M10.2186 17.7599C9.96866 18.1666 10.2087 18.7197 10.7054 18.8758C12.113 19.3183 14.7539 19.9527 16.0826 19.0027C16.0694 19.3508 16.099 19.6697 16.1615 19.9625C16.2634 20.4277 16.6943 20.9028 17.352 21.4038C17.7204 21.6868 18.1644 21.9764 18.6577 22.2757C19.1444 22.5913 19.595 22.8614 20.0127 23.0728C20.7494 23.447 21.3677 23.6324 21.838 23.5251C22.134 23.46 22.4333 23.3494 22.749 23.19C22.4497 24.7842 24.1533 26.8794 25.1564 27.9498C25.5116 28.3272 26.12 28.3077 26.3864 27.9108C27.2974 26.5606 28.2972 24.5662 29.2345 22.2725C30.0337 20.3236 30.7868 18.1601 31.4084 15.99C31.7472 14.8057 32.0432 13.6214 32.2865 12.4697C33.2831 7.73913 33.3423 3.57466 31.4315 2.37412C29.5174 1.17358 25.7319 2.99879 21.8281 5.90416C20.8777 6.61017 19.9206 7.38124 18.98 8.18811C17.2632 9.66519 15.6024 11.2627 14.1586 12.8048C12.4649 14.6235 11.0671 16.3706 10.2186 17.7599ZM26.1134 7.41378C26.712 7.43655 27.3106 7.61224 27.8499 7.9506C28.3893 8.28897 28.807 8.75096 29.08 9.27803C29.6292 10.3289 29.6226 11.6336 28.9418 12.7105L28.9254 12.7332C27.8894 14.347 25.7254 14.8252 24.0941 13.8004C22.4629 12.7755 21.9794 10.6347 23.0154 9.021L23.0318 8.99823C23.7258 7.93434 24.9163 7.37148 26.1134 7.41378Z" fill="#7294EB"/>
<path d="M34.1248 15.3945C33.9242 14.9943 33.3322 15.0561 33.2138 15.4888C33.1316 15.7979 33.0428 16.1102 32.954 16.4226C32.7994 16.9659 32.635 17.5125 32.4607 18.0558C32.4311 18.1534 32.4311 18.2608 32.464 18.3552C33.9341 22.5717 33.523 27.3836 30.9281 31.4342V31.4374C28.8759 34.6356 24.5905 35.5824 21.3576 33.5522C18.3878 31.688 17.3387 27.9595 18.7759 24.8882C18.914 24.5921 18.8088 24.2407 18.5227 24.0715C18.3845 23.9902 18.2431 23.9024 18.0951 23.8113C17.9965 23.7494 17.8978 23.6844 17.7959 23.6193C17.6939 23.5575 17.5919 23.4957 17.4933 23.4339C17.3453 23.3395 17.2039 23.2484 17.0723 23.1606C16.7993 22.9784 16.431 23.0337 16.2172 23.2842C14.017 25.8772 10.1625 26.5247 7.19272 24.6604C3.95981 22.6302 3.00277 18.3942 5.05499 15.1928V15.1895C7.65315 11.1422 11.8793 8.72808 16.3586 8.24656C16.4606 8.2368 16.5593 8.19125 16.6349 8.12293C17.0624 7.73576 17.4933 7.3551 17.9208 6.9842C18.1708 6.76947 18.4207 6.558 18.6674 6.35303C19.0127 6.06672 18.8187 5.50712 18.3681 5.50061C12.2739 5.38023 6.25869 8.33115 2.76597 13.81C-2.40733 21.9177 -0.118316 32.7193 7.91625 38.0778C16.3586 43.7096 27.7741 41.3085 33.1941 32.8625C36.6934 27.4064 36.8216 20.7888 34.1248 15.3945Z" fill="white"/>
</svg>
