<svg width="136" height="34" viewBox="0 0 136 34" fill="none" xmlns="http://www.w3.org/2000/svg">
<path fill-rule="evenodd" clip-rule="evenodd" d="M5.25034 6.74353H28.2904V28.885H5.25034V6.74353ZM23.438 9.69224C23.6385 9.28736 24.0413 8.95327 24.5709 8.95327C25.2641 8.91791 25.8813 9.42747 25.9347 10.1877C25.9347 10.2921 25.8844 10.6632 25.8458 10.7516L23.1626 14.9377C22.8905 15.3797 22.9457 15.7154 23.056 16.0867L27.103 26.0436H10.4885C9.0101 26.0436 7.8586 24.8958 7.8586 23.4636L7.80529 10.2903C7.86045 8.54341 10.3965 8.54342 10.4885 10.239V22.6521C10.4885 23.0428 10.8505 23.4636 11.2881 23.4636H23.4736L20.3373 16.2618C20.2288 16.032 20.1907 15.7844 20.1907 15.5015C20.1907 15.185 20.3367 14.7085 20.5372 14.2841L23.438 9.69224ZM16.6901 10.239C16.6901 9.39121 17.3398 8.96196 17.9917 8.95754C18.6435 8.95312 19.2977 9.37353 19.2977 10.239V19.1921C19.2977 21.2395 17.7081 22.6008 15.7572 22.6008C13.8595 22.6008 12.2743 21.2395 12.2743 19.1921V10.239C12.2743 8.54342 14.882 8.54342 14.882 10.239V19.1238C14.882 20.3084 16.6901 20.4127 16.6901 19.1238V10.239Z" fill="white"/>
<path d="M36.975 9.31421V18.5311C36.975 20.8349 36.7304 22.115 34.7813 22.115C34.4154 22.115 34.1709 22.115 33.8049 21.9877V25.9553C34.5368 26.2116 35.024 26.2116 35.6345 26.2116C41.1196 26.2116 41.3642 22.2441 41.3642 19.9385V13.2835H44.5324V25.9553H48.9216V9.31421H36.975Z" fill="white"/>
<path d="M50.3835 9.31421L56.3577 21.3477L54.164 25.9553H58.9173L65.9874 9.31421H61.2342L58.6746 16.3547L55.6258 9.31421H50.3835Z" fill="white"/>
<path d="M67.3279 25.9553H71.7171V18.7875L76.2277 25.9553H81.836L75.6191 17.3784L81.7128 9.31421H76.4722L71.7171 16.3547V9.31421H67.3279V25.9553Z" fill="white"/>
<path d="M89.0275 26.468C94.8785 26.468 97.5613 22.115 97.5613 17.6347C97.5613 13.2835 94.8785 8.93054 89.0275 8.93054C83.2978 8.93054 80.6169 13.2835 80.6169 17.6347C80.6169 22.115 83.2978 26.468 89.0275 26.468ZM89.0275 22.4987C87.0765 22.4987 85.1274 20.8349 85.1274 17.6347C85.1274 14.4345 87.0765 12.8981 89.0275 12.8981C91.0998 12.8981 93.0508 14.4345 93.0508 17.6347C93.0508 20.8349 91.0998 22.4987 89.0275 22.4987Z" fill="white"/>
<path d="M99.755 9.31427V25.9553H104.023L110.117 15.971V25.9553H114.384V9.31427H110.117L104.023 19.2986V9.31427H99.755ZM107.191 8.41786C109.021 8.41786 110.848 7.77782 111.702 5.85769L109.142 4.83398C108.776 6.11407 107.678 6.24313 107.191 6.24313C106.825 6.24313 105.606 6.11407 105.363 4.83398L102.804 5.85769C103.534 7.77782 105.485 8.41786 107.191 8.41786Z" fill="white"/>
<path d="M119.017 9.31421V18.5311C119.017 20.8349 118.772 22.115 116.823 22.115C116.457 22.115 116.212 22.115 115.847 21.9877V25.9553C116.578 26.2116 117.066 26.2116 117.676 26.2116C123.161 26.2116 123.406 22.2441 123.406 19.9385V13.2835H126.574V25.9553H130.963V9.31421H119.017Z" fill="white"/>
</svg>
