<svg width="197" height="66" viewBox="0 0 197 66" fill="none" xmlns="http://www.w3.org/2000/svg">
<path d="M28.8933 42.0984H37.211V41.2099H36.5865C35.3707 41.2099 35.0779 40.8765 35.0779 39.6575V28.635C35.9256 27.1917 37.0661 26.2669 38.5021 26.2669C40.3062 26.2669 41.4104 27.5981 41.4104 30.1147V39.6603C41.4104 40.8821 41.1148 41.2127 39.9381 41.2127H39.2745V42.1013H47.4082V41.2127H46.8199C45.6041 41.2127 45.3113 40.8793 45.3113 39.6603V29.7056C45.3113 29.372 45.3114 29.0385 45.2751 28.7079C46.0837 27.2281 47.2995 26.2669 48.7354 26.2669C50.5396 26.2669 51.6438 27.5981 51.6438 30.1147V39.6603C51.6438 40.8821 51.3482 41.2127 50.1715 41.2127H49.5078V42.1013H57.6416V41.2127H57.0895C55.8375 41.2127 55.5447 40.8793 55.5447 39.6603V29.7056C55.5447 25.9698 53.4478 23.8987 50.3919 23.8987C48.1108 23.8987 46.1227 25.157 45.0548 27.6709C44.4302 25.23 42.5899 23.8987 40.1584 23.8987C37.9862 23.8987 36.1097 25.0814 35.0779 27.4495V24.3415H28.8933V25.23H29.6294C30.8814 25.23 31.1742 25.5634 31.1742 26.7825V39.6575C31.1742 40.8793 30.8786 41.2099 29.6294 41.2099H28.8933V42.0984ZM62.5352 21.382C63.8597 21.382 64.9639 20.2722 64.9639 18.941C64.9639 17.6098 63.8597 16.5 62.5352 16.5C61.2108 16.5 60.1066 17.6098 60.1066 18.941C60.1066 20.2722 61.2108 21.382 62.5352 21.382ZM58.414 42.0984H66.584V41.2099H66.0317C64.8161 41.2099 64.5233 40.8765 64.5233 39.6575V24.3415H58.3387V25.23H59.0748C60.3267 25.23 60.6195 25.5634 60.6195 26.7825V39.6575C60.6195 40.8793 60.3239 41.2099 59.0748 41.2099H58.4112V42.0984H58.414ZM72.5485 31.6673H74.9046C74.3163 31.2974 74.0956 30.779 73.8001 29.8177L72.9162 26.5247C72.5117 25.045 72.1801 24.3415 70.5601 24.3415H67.175V25.23H67.655C68.6473 25.23 68.7589 25.5999 69.0544 26.7097L69.8266 29.5963C70.2311 31.0032 70.8582 31.6673 72.5511 31.6673H72.5485ZM77.9969 31.6673H80.353C82.0452 31.6673 82.6336 31.0003 83.0407 29.5963L83.8136 26.7097C84.1091 25.5999 84.2536 25.23 85.213 25.23H85.693V24.3415H82.344C80.6872 24.3415 80.3556 25.0085 79.9879 26.5247L79.104 29.8177C78.8079 30.8154 78.5852 31.2974 77.9969 31.6673ZM74.9046 34.7753H77.9969V31.6673H74.9046V34.7753ZM67.175 42.1013H70.5601C72.1801 42.1013 72.5117 41.3978 72.9162 39.9181L73.8001 36.6251C74.0956 35.6637 74.3163 35.1453 74.9046 34.7753H72.5485C70.8556 34.7753 70.2285 35.4425 69.824 36.8465L69.0518 39.7331C68.7563 40.8429 68.6473 41.2127 67.6517 41.2127H67.1724V42.1013H67.175ZM82.3381 42.1013H85.6871V41.2127H85.2077C84.251 41.2127 84.1032 40.8429 83.8077 39.7331L83.0355 36.8465C82.631 35.4396 82.0426 34.7753 80.3471 34.7753H77.9969C78.5852 35.1453 78.8 35.6273 79.0955 36.6251L79.9793 39.9181C80.3471 41.4341 80.6794 42.1013 82.3355 42.1013H82.3381ZM86.1665 49.5H94.7051V48.6115H93.8206C92.6438 48.6115 92.3483 48.278 92.3483 47.0589V39.9938C93.4167 41.5855 95.2206 42.5469 97.3541 42.5469C101.366 42.5469 104.568 38.996 104.568 32.8557C104.568 27.3066 101.55 23.9043 97.6463 23.9043C95.3657 23.9043 93.4502 25.2355 92.3457 27.6036V24.3471H86.1612V25.2355H86.8973C88.1128 25.2355 88.4418 25.569 88.4418 26.7881V47.0561C88.4418 48.278 88.1102 48.6087 86.8973 48.6087H86.1612V49.4972L86.1665 49.5ZM96.2522 26.194C98.6444 26.194 100.597 28.45 100.597 32.9257C100.597 37.8078 98.7922 40.4729 96.3277 40.4729C94.7438 40.4729 93.3471 39.6209 92.3516 38.1412V28.9657C93.3077 27.1525 94.671 26.1912 96.2522 26.1912V26.194ZM110.387 42.4712C112.779 42.4712 114.692 41.3249 116.128 38.7354V39.1418C116.128 41.3613 117.528 42.3227 119.845 42.3227C120.545 42.3227 121.429 42.2498 122.017 42.0647V41.14C121.722 41.2127 121.501 41.252 121.281 41.252C120.361 41.252 120.065 40.6972 120.065 39.8086V30.3361C120.065 25.9698 117.637 23.8987 113.551 23.8987C110.827 23.8987 108.179 25.157 106.486 26.4882L107.074 27.5252C108.842 26.3033 110.571 25.6027 112.448 25.6027C114.876 25.6027 116.128 26.9339 116.128 30.0419V30.8546L111.6 32.6315C107.479 34.3325 105.967 35.9245 105.967 38.3291C105.967 40.7335 107.66 42.4712 110.384 42.4712H110.387ZM109.835 37.3649C109.835 35.5153 110.902 34.184 113.075 33.2228L116.131 31.8915V37.662C114.99 39.2538 113.666 40.1786 112.23 40.1786C110.794 40.1786 109.837 39.1809 109.837 37.3677L109.835 37.3649ZM122.753 42.1013H131.146V41.2127H130.446C129.231 41.2127 128.938 40.8793 128.938 39.6603V28.6715C129.786 27.1917 131.035 26.2669 132.507 26.2669C134.42 26.2669 135.635 27.5981 135.635 30.1147V39.6603C135.635 40.8821 135.34 41.2127 134.163 41.2127H133.464V42.1013H141.818V41.2127H141.081C139.829 41.2127 139.536 40.8793 139.536 39.6603V29.7056C139.536 25.9698 137.328 23.8987 134.2 23.8987C131.918 23.8987 130.003 25.0814 128.935 27.4495V24.3415H122.751V25.23H123.487C124.738 25.23 125.031 25.5634 125.031 26.7825V39.6575C125.031 40.8793 124.736 41.2099 123.487 41.2099H122.751V42.0984L122.753 42.1013ZM151.387 42.5441C153.816 42.5441 156.099 41.4341 157.756 40.103L157.204 39.2903C155.731 40.3637 154.075 40.8429 152.531 40.8429C148.777 40.8429 146.569 38.1805 146.569 33.0014V32.3343H158.2C158.127 27.3402 155.07 23.9379 150.618 23.9379C146.165 23.9379 142.593 27.9708 142.593 33.2985C142.593 39.1445 145.905 42.5469 151.39 42.5469L151.387 42.5441ZM150.651 24.86C152.859 24.86 154.22 27.2645 154.443 31.3338H146.642C146.973 27.2281 148.518 24.86 150.654 24.86H150.651ZM159.005 42.0984H167.543V41.2099H166.695C165.479 41.2099 165.187 40.8765 165.187 39.6575V16.9428H159.002V17.8312H159.739C160.954 17.8312 161.283 18.1647 161.283 19.3838V39.6575C161.283 40.8793 160.951 41.2099 159.739 41.2099H159.002V42.0984H159.005Z" fill="#ECEFF9"/>
</svg>
