<svg width="149" height="41" viewBox="0 0 149 41" fill="none" xmlns="http://www.w3.org/2000/svg">
<path fill-rule="evenodd" clip-rule="evenodd" d="M32.0773 30.1512H37.2251C37.7568 30.1512 38.1915 29.7158 38.1915 29.1833V20.2496L47.8003 30.9686L57.41 20.2496V29.1833C57.41 29.7158 57.8447 30.1512 58.3765 30.1512H63.5235V11.0085H59.1526C57.8894 11.0085 56.9479 11.6179 56.4391 12.1848L47.8003 21.8212L39.1617 12.1848C38.6535 11.6179 37.7114 11.0085 36.4487 11.0085H32.0773V30.1512Z" fill="#ECEFF9"/>
<path fill-rule="evenodd" clip-rule="evenodd" d="M89.8818 30.1512H115.348C115.88 30.1512 116.315 29.7157 116.315 29.1832V24.085H103.932L116.279 11.0261H90.8282C90.2968 11.0261 89.8617 11.462 89.8617 11.9941V17.0924H102.229L89.8818 30.1512Z" fill="#ECEFF9"/>
<path fill-rule="evenodd" clip-rule="evenodd" d="M77.4444 8.09027C85.2157 8.09027 91.5163 13.5313 91.5163 20.3905C91.5163 27.2493 85.2157 32.6903 77.4444 32.6903C69.6722 32.6903 63.3721 27.2493 63.3721 20.3905C63.3721 13.5313 69.6722 8.09027 77.4444 8.09027ZM77.4444 14.2368C81.2341 14.2368 84.4838 16.992 84.4838 20.3905C84.4838 23.7886 81.3323 26.5438 77.4444 26.5438C73.5565 26.5438 70.4041 23.7886 70.4041 20.3905C70.4041 16.992 73.6547 14.2368 77.4444 14.2368Z" fill="#ECEFF9"/>
</svg>
