<svg width="78" height="79" viewBox="0 0 78 79" fill="none" xmlns="http://www.w3.org/2000/svg">
<g clip-path="url(#clip0_214_7)">
<path fill-rule="evenodd" clip-rule="evenodd" d="M78 78.4884V20C78 8.95428 69.0459 0 58 0H0C11.0459 0 20 8.95428 20 20V38.4884C20 49.5341 28.9541 58.4884 40 58.4884H58C69.0459 58.4884 78 67.4427 78 78.4884Z" fill="#091929"/>
<g clip-path="url(#clip1_214_7)">
<path d="M39.5157 18.9524C39.2322 18.9524 39 19.1835 39 19.4681C39 19.7527 39.2322 19.9839 39.5157 19.9839H57.2379L39.1516 38.0693C38.9504 38.2705 38.9504 38.5974 39.1516 38.7987C39.2528 38.8998 39.3849 38.9493 39.5168 38.9493C39.6499 38.9493 39.7818 38.8988 39.8819 38.7987L57.9684 20.7133V38.4344C57.9684 38.7192 58.1995 38.9501 58.4841 38.9501C58.7678 38.9501 58.9998 38.719 58.9998 38.4344V18.9524H39.5157Z" fill="#ECEFF9"/>
</g>
</g>
<defs>
<clipPath id="clip0_214_7">
<rect width="78" height="79" fill="white"/>
</clipPath>
<clipPath id="clip1_214_7">
<rect width="20" height="20" fill="white" transform="translate(39 19)"/>
</clipPath>
</defs>
</svg>
