<svg width="182" height="60" viewBox="0 0 182 60" fill="none" xmlns="http://www.w3.org/2000/svg">
<path d="M56.5122 36.3662C55.5858 34.5645 54.5013 32.7475 52.3862 32.7475C51.9809 32.7475 51.5757 32.8124 51.2052 32.9803L50.4872 31.5565C51.3634 30.8122 52.7799 30.2243 54.5978 30.2243C57.4308 30.2243 58.882 31.5718 60.0361 33.2933C60.7195 31.8237 61.0471 29.8388 61.0471 27.3766C61.0471 21.2309 59.1058 18.0779 54.5669 18.0779C50.0936 18.0779 48.1637 21.2309 48.1637 27.3766C48.1637 33.488 50.0974 36.6106 54.5669 36.6106C55.2771 36.6143 55.9216 36.5342 56.5122 36.3662ZM57.6199 38.5077C56.6396 38.7673 55.5974 38.9123 54.5669 38.9123C48.6114 38.9123 42.7795 34.2133 42.7795 27.3805C42.7795 20.4789 48.6114 15.7799 54.5669 15.7799C60.6227 15.7799 66.3966 20.4484 66.3966 27.3805C66.3966 31.2359 64.5791 34.3698 61.931 36.3968C62.7839 37.6641 63.6642 38.5039 64.8915 38.5039C66.2268 38.5039 66.7673 37.4809 66.8559 36.6793H68.597C68.6971 37.7443 68.1608 42.1799 63.2936 42.1799C60.3487 42.1799 58.7894 40.4888 57.6199 38.5077ZM70.2253 32.6482V24.7466C70.2253 23.8457 69.8898 23.4487 68.8439 23.4487H67.7325V21.3492H74.9998V32.549C74.9998 34.4385 76.0342 35.2707 77.6054 35.2707C78.8982 35.2707 80.1874 34.7057 80.8863 33.4155V24.7504C80.8863 23.8495 80.5502 23.4525 79.5043 23.4525H78.3231V21.353H85.6601V33.0834C85.6601 34.2515 86.0963 34.7859 87.4474 34.7859H87.6828V36.9541L81.1217 37.9886V35.7555H80.9864C79.7166 37.2862 77.9294 38.3207 75.382 38.3207C72.5143 38.313 70.2253 36.8816 70.2253 32.6482ZM97.2238 36.2135C99.81 36.2135 100.79 33.9919 100.84 29.5143C100.891 25.1359 99.8058 23.0174 97.2238 23.0174C94.9658 23.0174 93.5492 25.1398 93.5492 29.5143C93.5535 33.9919 94.9427 36.2135 97.2238 36.2135ZM97.2238 38.313C92.5501 38.313 88.3349 34.7783 88.3349 29.5143C88.3349 24.3458 92.4457 20.9141 97.2238 20.9141C102.203 20.9141 106.19 24.4145 106.19 29.5143C106.19 34.7783 102.203 38.313 97.2238 38.313ZM106.34 37.9809V35.8814H107.047C108.799 35.8814 108.969 35.3814 108.969 33.8812V24.7466C108.969 23.8457 108.498 23.4487 107.417 23.4487H106.472V21.3492H113.134L113.469 24.7809H113.604C114.345 22.315 116.333 21.0133 118.197 21.0133C119.737 21.0133 120.938 21.8798 120.938 23.6357C120.938 24.8573 120.343 26.1589 118.68 26.1589C117.186 26.1589 116.893 25.1588 115.658 25.1588C114.557 25.1588 113.705 26.1933 113.705 27.7126V33.8812C113.705 35.3814 114.075 35.8814 115.797 35.8814H116.773V37.9809H106.34ZM128.518 35.5341C130.641 35.5341 131.517 33.5453 131.517 31.5451V28.8768C129.966 30.4648 126.361 30.5221 126.361 33.3544C126.361 34.7477 127.19 35.5341 128.518 35.5341ZM131.618 35.5226C130.742 37.1908 128.943 38.313 126.426 38.313C123.505 38.313 121.617 36.7785 121.617 34.0797C121.617 28.6478 129.267 30.0907 131.513 26.491V26.1017C131.513 23.3342 130.413 22.9028 129.198 22.9028C125.793 22.9028 127.345 26.5216 124.211 26.5216C122.706 26.5216 122.123 25.6246 122.123 24.613C122.123 22.5669 124.593 20.9141 129.236 20.9141C133.628 20.9141 136.327 22.1127 136.327 26.4376V33.3353C136.327 34.4003 136.72 34.9806 137.662 34.9806C138.067 34.9806 138.403 34.8699 138.662 34.6904L139.225 36.0456C138.765 36.748 137.538 37.9809 135.214 37.9809C133.192 37.9809 131.922 37.0457 131.756 35.5264L131.618 35.5226Z" fill="#ECEFF9"/>
</svg>
