<svg width="113" height="32" viewBox="0 0 113 32" fill="none" xmlns="http://www.w3.org/2000/svg">
<g id="Frame" opacity="0.5" clip-path="url(#clip0_32_340)">
<path id="Vector" d="M16.7332 24.4184C15.6651 22.3593 14.4146 20.2828 11.9757 20.2828C11.5084 20.2828 11.0411 20.3569 10.6139 20.5488L9.7861 18.9216C10.7964 18.0709 12.4297 17.3991 14.5258 17.3991C17.7924 17.3991 19.4658 18.939 20.7965 20.9066C21.5845 19.227 21.9622 16.9585 21.9622 14.1446C21.9622 7.12089 19.7239 3.51746 14.4902 3.51746C9.33217 3.51746 7.10692 7.12089 7.10692 14.1446C7.10692 21.1291 9.33658 24.6977 14.4902 24.6977C15.3091 24.702 16.0523 24.6104 16.7332 24.4184ZM18.0105 26.8658C16.8801 27.1625 15.6785 27.3283 14.4902 27.3283C7.62317 27.3283 0.898579 21.958 0.898579 14.149C0.898579 6.26148 7.62317 0.891174 14.4902 0.891174C21.4729 0.891174 28.1306 6.22658 28.1306 14.149C28.1306 18.5552 26.0348 22.1368 22.9814 24.4533C23.965 25.9017 24.98 26.8614 26.3951 26.8614C27.9347 26.8614 28.558 25.6923 28.6602 24.7762H30.6678C30.7832 25.9933 30.1648 31.0626 24.5526 31.0626C21.1569 31.0626 19.359 29.13 18.0105 26.8658ZM32.5453 20.1693V11.1388C32.5453 10.1092 32.1585 9.65556 30.9525 9.65556H29.671V7.25611H38.0506V20.0559C38.0506 22.2153 39.2432 23.1664 41.055 23.1664C42.5457 23.1664 44.0322 22.5207 44.838 21.0462V11.1432C44.838 10.1136 44.4505 9.65988 43.2445 9.65988H41.8826V7.2605H50.3426V20.6666C50.3426 22.0016 50.8456 22.6123 52.4034 22.6123H52.6748V25.0902L45.1095 26.2725V23.7205H44.9535C43.4894 25.4698 41.4286 26.6521 38.4913 26.6521C35.1846 26.6433 32.5453 25.0074 32.5453 20.1693ZM63.6762 24.2439C66.6583 24.2439 67.7887 21.7049 67.8461 16.5877C67.9041 11.5838 66.6534 9.1626 63.6762 9.1626C61.0726 9.1626 59.4392 11.5882 59.4392 16.5877C59.4441 21.7049 61.046 24.2439 63.6762 24.2439ZM63.6762 26.6433C58.2871 26.6433 53.4268 22.6036 53.4268 16.5877C53.4268 10.6808 58.1668 6.75883 63.6762 6.75883C69.4172 6.75883 74.0145 10.7593 74.0145 16.5877C74.0145 22.6036 69.4172 26.6433 63.6762 26.6433ZM74.188 26.2638V23.8644H75.0029C77.0231 23.8644 77.219 23.2929 77.219 21.5784V11.1388C77.219 10.1092 76.6762 9.65556 75.4296 9.65556H74.3398V7.25611H82.0212L82.4081 11.1781H82.5641C83.4182 8.3599 85.7105 6.87225 87.8601 6.87225C89.6355 6.87225 91.0199 7.86256 91.0199 9.8693C91.0199 11.2653 90.3344 12.7529 88.4163 12.7529C86.694 12.7529 86.3555 11.61 84.9319 11.61C83.663 11.61 82.6795 12.7922 82.6795 14.5285V21.5784C82.6795 23.2929 83.1069 23.8644 85.0921 23.8644H86.2177V26.2638H74.188ZM99.7604 23.4674C102.208 23.4674 103.218 21.1945 103.218 18.9085V15.8591C101.43 17.6739 97.2729 17.7394 97.2729 20.9764C97.2729 22.5687 98.2292 23.4674 99.7604 23.4674ZM103.334 23.4543C102.324 25.3608 100.25 26.6433 97.3485 26.6433C93.9796 26.6433 91.8034 24.8896 91.8034 21.8053C91.8034 15.5973 100.624 17.2464 103.214 13.1325V12.6875C103.214 9.52466 101.946 9.0317 100.544 9.0317C96.6182 9.0317 98.4076 13.1674 94.7938 13.1674C93.0583 13.1674 92.3861 12.1422 92.3861 10.9861C92.3861 8.64777 95.2345 6.75883 100.588 6.75883C105.653 6.75883 108.764 8.12868 108.764 13.0714V20.9546C108.764 22.1717 109.217 22.8349 110.304 22.8349C110.771 22.8349 111.158 22.7083 111.456 22.5032L112.106 24.052C111.576 24.8547 110.161 26.2638 107.482 26.2638C105.15 26.2638 103.685 25.1949 103.495 23.4586L103.334 23.4543Z" fill="#ECEFF9"/>
</g>
<defs>
<clipPath id="clip0_32_340">
<rect width="113" height="32" fill="white"/>
</clipPath>
</defs>
</svg>
