<svg width="213" height="55" viewBox="0 0 213 55" fill="none" xmlns="http://www.w3.org/2000/svg">
<path d="M74.1089 34.8001C74.1089 35.6013 73.4504 36.2507 72.6385 36.2507H57.8395C57.0277 36.2507 56.3691 35.6013 56.3691 34.8001V20.2019C56.3691 19.4008 57.0277 18.7514 57.8395 18.7514H72.6385C73.4504 18.7514 74.1089 19.4008 74.1089 20.2019V34.8001ZM74.5187 13.75H55.9571C53.3843 13.75 51.2984 15.807 51.2984 18.3454V36.6538C51.2984 39.1917 53.3843 41.2499 55.9571 41.2499H74.5187C77.092 41.2499 79.1785 39.1917 79.1785 36.6538V18.3454C79.1785 15.807 77.092 13.75 74.5187 13.75Z" fill="#ECEFF9"/>
<path d="M62.2797 31.2317C61.8119 31.2317 61.436 30.8572 61.436 30.3954V24.5683C61.436 24.1057 61.8119 23.7313 62.2797 23.7313H68.1963C68.663 23.7313 69.0399 24.1057 69.0399 24.5683V30.3954C69.0399 30.8572 68.663 31.2317 68.1963 31.2317H62.2797Z" fill="#ECEFF9"/>
<path d="M86.5689 30.8344H89.6128C89.765 32.5359 90.9321 33.8619 93.2912 33.8619C95.3961 33.8619 96.6898 32.8361 96.6898 31.2847C96.6898 29.8336 95.6755 29.1829 93.8488 28.7577L91.4902 28.2572C88.9281 27.7067 86.9999 26.0803 86.9999 23.4282C86.9999 20.5006 89.6379 18.499 93.0626 18.499C96.6898 18.499 99.0238 20.3756 99.2268 23.153H96.2844C95.9292 21.8519 94.8385 21.0761 93.0626 21.0761C91.1852 21.0761 89.8921 22.077 89.8921 23.3531C89.8921 24.6292 91.0079 25.4048 92.936 25.8302L95.2696 26.3307C97.8317 26.8811 99.582 28.4073 99.582 31.0846C99.582 34.4874 96.9942 36.5142 93.2912 36.5142C89.131 36.5142 86.8226 34.2873 86.5689 30.8344Z" fill="#ECEFF9"/>
<path d="M110.573 29.9866C110.573 27.459 109.005 25.9867 107.089 25.9867C105.174 25.9867 103.607 27.459 103.607 29.9866C103.607 32.5142 105.174 33.9865 107.089 33.9865C109.005 33.9865 110.573 32.5142 110.573 29.9866ZM110.473 41.2502V36.2688L110.672 34.0848H110.473C109.776 35.6552 108.308 36.5141 106.318 36.5141C103.109 36.5141 100.721 33.9375 100.721 29.9866C100.721 26.0356 103.109 23.4591 106.318 23.4591C108.284 23.4591 109.677 24.367 110.473 25.7903H110.672V23.7045H113.309V41.2502H110.473Z" fill="#ECEFF9"/>
<path d="M115.415 31.2871V23.7043H118.252V31.0417C118.252 33.0294 119.222 33.9864 120.839 33.9864C122.829 33.9864 124.123 32.5877 124.123 30.4037V23.7043H126.959V36.2687H124.322V33.6674H124.123C123.501 35.3361 122.133 36.514 120.018 36.514C116.983 36.514 115.415 34.6 115.415 31.2871Z" fill="#ECEFF9"/>
<path d="M136.824 31.2136V30.551L133.963 30.7474C132.421 30.8455 131.724 31.41 131.724 32.5387C131.724 33.4958 132.52 34.1828 133.64 34.1828C135.655 34.1828 136.824 32.9067 136.824 31.2136ZM128.689 32.7595C128.689 30.4038 130.356 29.0296 133.316 28.8577L136.824 28.6369V27.6554C136.824 26.4775 135.953 25.7659 134.411 25.7659C132.993 25.7659 132.147 26.4775 131.923 27.4835H129.087C129.386 24.9314 131.525 23.4591 134.411 23.4591C137.67 23.4591 139.661 24.8333 139.661 27.4835V36.2688H137.023V33.9375H136.824C136.227 35.4835 134.983 36.5141 132.595 36.5141C130.306 36.5141 128.689 34.9927 128.689 32.7595Z" fill="#ECEFF9"/>
<path d="M141.771 36.2684V23.7041H144.408V26.1091H144.607C144.98 24.4649 146.249 23.7041 148.14 23.7041H149.433V26.2317H147.816C145.976 26.2317 144.607 27.4097 144.607 29.6428V36.2684H141.771Z" fill="#ECEFF9"/>
<path d="M159.703 28.5631C159.603 26.8208 158.135 25.6429 156.344 25.6429C154.652 25.6429 153.234 26.698 152.885 28.5631H159.703ZM162.414 30.5017H152.737C152.885 32.8085 154.528 34.109 156.344 34.109C157.886 34.109 158.857 33.4955 159.404 32.4649H162.215C161.444 35.0169 159.18 36.5139 156.319 36.5139C152.562 36.5139 149.925 33.741 149.925 29.9864C149.925 26.2318 152.637 23.4587 156.344 23.4587C160.076 23.4587 162.513 25.9864 162.513 29.1275C162.513 29.741 162.464 30.06 162.414 30.5017Z" fill="#ECEFF9"/>
</svg>
