<svg width="175" height="48" viewBox="0 0 175 48" fill="none" xmlns="http://www.w3.org/2000/svg">
<path d="M23.9262 19.1496L19.0648 23.9499L14.2036 19.1496L19.0648 14.3503L23.9262 19.1496Z" fill="#ECEFF9"/>
<path d="M28.7879 23.9497L23.9267 28.7501L28.7879 33.5503L33.6491 28.7501L28.7879 23.9497L33.649 19.1496L38.5105 23.9499L43.3716 19.1496L38.5105 14.3503L33.649 19.1496L28.7879 14.3503L23.9267 19.1494L28.7879 23.9497Z" fill="#ECEFF9"/>
<path d="M67.6608 33.1591H63.8896V19.9513H59.0124V16.7597H72.538V19.9513H67.6608V33.1591Z" fill="#ECEFF9"/>
<path d="M87.6157 16.7599H83.8226V33.1592H87.6157V16.7599Z" fill="#ECEFF9"/>
<path d="M161.119 29.923H154.559V16.7597H150.765V33.1591H161.119V29.923Z" fill="#ECEFF9"/>
<path fill-rule="evenodd" clip-rule="evenodd" d="M100.244 16.7597H106.39C110.924 16.7597 115.435 19.1303 115.435 24.9149C115.435 30.3674 111.013 33.1588 106.614 33.1588L100.244 33.159V16.7597ZM103.925 29.945H106.278C109.442 29.945 111.552 27.9956 111.552 24.8927C111.552 21.9451 109.42 19.9513 106.367 19.9513H103.925V29.945Z" fill="#ECEFF9"/>
<path fill-rule="evenodd" clip-rule="evenodd" d="M140.657 33.1591H136.487L135.274 29.9234H128.271L127.047 33.1591H122.99L129.899 16.7597H133.815L140.657 33.1591ZM131.79 20.5962L129.288 27.01H134.268L131.79 20.5962Z" fill="#ECEFF9"/>
</svg>
