<svg width="186" height="62" viewBox="0 0 186 62" fill="none" xmlns="http://www.w3.org/2000/svg">
<path d="M136.538 41.2971H146.03V37.5709H144.091V32.7152C144.091 29.4111 146.417 28.686 148.188 28.686H150.548V23.7124H148.643C146.485 23.7124 144.495 24.7576 143.602 26.4266V23.9146H136.369V27.7079H138.46V37.5709H136.538V41.2971ZM124.769 41.2971H134.43V37.5709H132.374V17.98H124.415V21.7399H126.742V37.5709H124.769V41.2971ZM115.042 37.2673C113.339 37.2673 111.669 36.1883 111.669 32.7829C111.669 28.686 113.642 27.9609 115.008 27.9609C116.592 27.9609 117.992 29.2422 117.992 32.4288C117.992 37.0147 115.935 37.1664 115.042 37.2673ZM116.256 41.4993C121.111 41.4993 123.724 37.8579 123.724 32.395C123.724 27.1517 121.296 23.7124 116.357 23.7124C114.62 23.7124 112.883 24.37 111.838 25.1792V17.98H103.813V21.7399H106.14V41.2971H111.484V39.7628C112.85 40.9094 114.485 41.4993 116.256 41.4993ZM71.9144 41.2971H81.5077V37.5709H79.5516V31.0801C79.5516 30.1358 80.3607 28.197 82.8227 28.197C84.8117 28.197 85.2165 29.4111 85.2165 30.8442V37.5709H83.2778V41.2971H92.8035V37.5709H90.8139V31.0801C90.8139 30.1358 91.5387 28.197 94.0168 28.197C96.0238 28.197 96.5123 29.4111 96.5123 30.8442V37.5709H94.6077V41.2971H104.083V37.5709H102.144V31.5017C102.144 27.9273 100.795 23.7124 95.467 23.7124C92.8376 23.7124 90.6793 24.9599 89.7686 26.4942C88.6222 24.7576 86.8856 23.7124 84.289 23.7124C82.2318 23.7124 79.9732 24.5888 78.7592 26.2582V23.9146H71.5604V27.7079H73.8867V37.5709H71.9144V41.2971ZM57.735 41.4993C59.7242 41.4993 62.0174 40.6396 63.2648 39.1052V41.2971H69.8232V37.5709H68.1541V23.9146H60.2305V27.7079H62.4892V34.2834C62.4892 34.8063 62.0515 37.0147 59.084 37.0147C57.1784 37.0147 56.8246 35.8682 56.8246 34.418V23.9146H50.9912V34.6544C50.9912 37.3349 52.2048 41.4993 57.735 41.4993ZM44.7026 41.2971C41.1957 41.2971 38.5824 39.4931 38.5824 35.1769V28.2646H35.3957V24.5218C38.9025 23.6111 40.3693 20.5934 40.5383 17.98H44.1798V23.9146H48.4283V28.2646H44.1798V34.2834C44.1798 36.0875 45.0904 36.7112 46.54 36.7112H48.5972V41.2971H44.7026Z" fill="#ECEFF9"/>
</svg>
