<svg width="167" height="45" viewBox="0 0 167 45" fill="none" xmlns="http://www.w3.org/2000/svg">
<path d="M45.6909 24.529C45.5154 26.5161 45.0776 29.1755 44.0855 32.2725C46.0115 32.915 47.7918 32.7983 49.4853 32.2725C50.1563 27.1884 50.9736 23.6233 52.3167 22.075C53.0757 22.4258 53.6301 23.419 54.0096 24.4123C55.0024 24.2956 55.9071 23.6239 56.5489 22.7467C56.4032 23.7698 56.3449 24.7338 56.3449 25.6395C56.3449 29.3505 58.1252 32.7692 63.1159 32.7692C67.2898 32.7692 70.2669 28.4448 70.8213 24.4421L72.6599 24.3254C71.2591 28.4454 73.1857 32.7698 78.7896 32.7698C84.3935 32.7698 86.5533 27.2479 86.291 22.7771C87.721 22.6604 88.4217 22.368 89.4722 21.9298C89.5305 24.1503 87.9839 29.5268 86.9917 32.3023C88.7721 32.7412 90.8153 33.033 92.5367 32.3023C93.7627 26.8382 94.4925 22.1054 96.2437 22.1054C98.5201 22.1054 96.2729 28.1245 95.4264 32.2738C97.3525 32.9163 99.1328 32.7996 100.826 32.2738C101.497 27.1896 102.227 22.1054 104.913 22.1054C106.985 22.1054 103.716 26.5757 103.716 29.7317C103.716 31.4264 104.737 32.7704 107.102 32.7704C109.816 32.7704 112.56 29.79 113.377 27.9202C113.085 30.6374 114.632 32.7704 117.609 32.7704C120.616 32.7704 122.746 30.0532 123.914 27.9202C123.797 30.9298 125.635 32.7704 128.088 32.7704C131.707 32.7704 133.459 29.8782 134.218 27.9202L133.751 32.7704C136.611 32.8585 138.741 32.0981 139.267 27.9202H140.872C143.09 35.8674 148.928 38.4976 153.569 38.4976C157.684 38.4976 160.894 35.9264 159.843 31.7771C158.53 32.3029 156.75 32.7704 154.648 32.7704C151.847 32.7704 148.548 31.7473 144.287 27.9202C148.052 27.3653 151.058 23.7418 151.058 20.9663C151.058 18.9209 149.803 17.2261 148.052 17.2261C145.629 17.2261 142.769 18.3951 140.522 22.0763H139.938L140.814 19.4175C148.636 12.5796 147.205 8.89843 143.615 8.9276C139.733 8.95678 136.173 14.6841 134.246 26.0207C133.079 27.2771 132.495 27.9202 131.502 27.9202C129.313 27.9202 128.788 26.2255 129.664 22.486C135.063 15.853 137.69 8.92821 132.757 8.92821C128.73 8.92821 125.694 14.1583 123.855 26.372C122.775 27.2777 121.491 27.9209 120.352 27.9209C118.718 27.9209 117.842 26.6936 118.922 24.1223C123.329 20.6162 123.184 17.1976 119.361 17.1976C117.054 17.1976 114.865 18.1325 113.26 26.5769C112.443 27.3659 111.743 27.9209 110.225 27.9209C109.641 27.9209 109.495 27.3659 109.495 26.7519C109.495 25.1745 111.8 22.6325 111.8 20.353C111.8 18.454 110.692 17.1976 108.852 17.1976C106.781 17.1976 104.241 18.5707 102.11 22.1067C102.752 18.9215 102.198 17.1976 99.8918 17.1976C97.9068 17.1976 96.506 18.5707 95.5721 20.5572H95.2218C95.6013 17.1976 93.0031 16.5253 90.114 17.7817C89.647 19.6223 88.5674 19.8272 86.4076 20.1773C86.0281 18.1318 85.2982 17.2261 82.7881 17.197C81.8833 17.197 80.6574 17.6352 80.3076 18.3367C80.1036 17.7525 79.6944 17.2851 78.9651 17.197C76.543 16.9338 74.4997 19.3591 73.5658 21.7547C72.6028 22.0471 71.6392 22.106 70.6762 22.0763C70.7636 19.4758 69.7423 17.1672 66.8526 17.197C65.8021 17.197 64.6053 17.5477 63.2337 18.3951C65.2763 16.3204 66.9115 12.7851 66.8526 11.1779C66.8234 9.62969 65.8604 8.92821 64.6642 8.92821C61.6282 8.92821 58.9723 13.4574 57.5132 18.3951C57.192 17.6942 56.5502 17.197 55.4693 17.197C53.3976 17.197 51.6755 19.2132 50.5662 22.0763C51.0914 17.7811 50.9742 16.4371 45.2829 17.7228C45.4869 18.8911 45.5166 20.9949 45.3418 22.0763C44.437 25.2608 42.2183 27.9202 40.6129 27.9202C37.9861 27.9202 40.5254 21.2289 41.8971 17.6644C36.8184 16.1447 35.8263 18.0443 34.1042 25.3782C33.9294 25.9623 32.8498 27.9202 31.2735 27.9202C28.8799 27.9202 29.668 24.1801 31.0105 20.5566C34.2506 19.8266 34.5135 17.5179 33.1704 15.5314C29.3177 17.2845 24.6476 17.2845 20.7949 17.2261L21.5248 14.8306C19.2769 14.5673 15.4248 14.275 14.4029 17.0802C11.8344 17.4893 8.15659 16.7879 8.24402 21.083C9.70374 20.849 11.3675 20.6739 12.8266 20.7615C11.3092 23.7418 10.6085 26.2255 10.6085 28.1245C10.6085 31.134 12.7683 32.7704 15.191 32.7704C18.898 32.7704 21.758 31.3972 22.0209 27.4236C21.1744 27.95 20.0651 27.9202 19.3358 27.9202C17.6721 27.9202 17.3806 24.4433 19.2769 20.6156C19.9776 20.7912 24.0933 21.083 25.7279 20.6156C24.2979 22.982 23.5674 25.6116 23.4508 27.6285C23.2754 30.9596 25.0265 32.7704 27.4493 32.7704C30.4853 32.7704 32.2067 30.9298 33.9002 27.9202H34.1631C33.6373 30.5499 35.3302 32.7704 37.4615 32.7704C41.8103 32.7704 44.3205 28.3002 45.4584 24.5308H45.6909V24.529ZM117.579 11.8186C117.579 13.4258 118.98 14.7114 120.79 14.7114C122.599 14.7114 124.059 13.4252 124.059 11.8186C124.059 10.2114 122.6 8.92578 120.79 8.92578C118.98 8.92578 117.579 10.2114 117.579 11.8186ZM84.1306 23.0969C84.0432 24.9381 82.8755 27.9184 80.1607 27.9184C78.03 27.9184 77.3882 25.6979 78.0598 23.7108C79.4023 22.951 80.1607 22.1036 80.4825 20.4964C80.5991 21.8696 82.0582 23.2136 84.1306 23.0969ZM68.486 24.1782C68.1648 25.8146 66.9103 27.9184 64.6041 27.9184C63.145 27.9184 61.7144 26.9829 61.7144 25.1137C61.7144 23.2725 62.2397 21.6945 62.7066 20.6137C63.0861 23.3892 66.3844 24.4408 68.486 24.1782ZM140.082 24.0609C141.133 22.8045 142.125 22.0738 143.498 22.0738C144.169 22.0738 144.431 22.7455 144.431 23.3303C144.431 24.5576 141.921 26.3106 139.528 26.0182L140.082 24.0609Z" fill="#ECEFF9"/>
</svg>
