<svg width="25" height="22" viewBox="0 0 25 22" fill="none" xmlns="http://www.w3.org/2000/svg">
<rect y="4" width="19.615" height="18" rx="4" fill="#010E23"/>
<path d="M5.45447 8.58841C5.04072 8.58948 4.63574 8.69802 4.2864 8.90148C3.93707 9.10494 3.65764 9.39501 3.48045 9.73812C3.30326 10.0812 3.23556 10.4634 3.28516 10.8403C3.33477 11.2173 3.49966 11.5736 3.76076 11.8682L9.32685 18.1252C9.52531 18.3514 9.7797 18.5308 10.0689 18.6486C10.3581 18.7664 10.6737 18.8192 10.9896 18.8025C11.6652 18.7692 12.2752 18.4376 12.6641 17.8923L24.2262 0.804556C24.2281 0.801722 24.2301 0.798887 24.2321 0.796095C24.3406 0.643237 24.3055 0.340314 24.0815 0.150014C24.02 0.0977553 23.9475 0.0576061 23.8684 0.0320389C23.7894 0.00647177 23.7054 -0.00397205 23.6218 0.00135091C23.5382 0.00667386 23.4566 0.0276509 23.3822 0.0629899C23.3077 0.0983288 23.2419 0.147282 23.1889 0.206833C23.1847 0.211515 23.1804 0.216127 23.1761 0.220668L11.5154 12.3107C11.4711 12.3567 11.4172 12.3941 11.3569 12.4209C11.2966 12.4476 11.2312 12.4631 11.1643 12.4664C11.0975 12.4697 11.0305 12.4608 10.9675 12.4402C10.9044 12.4196 10.8464 12.3877 10.7969 12.3463L6.92698 9.11463C6.52505 8.77653 5.99972 8.58879 5.45447 8.58841Z" fill="#7294EB"/>
</svg>
